<?xml version="1.0" encoding="UTF-8" standalone="no"?>
<svg
   xmlns:dc="http://purl.org/dc/elements/1.1/"
   xmlns:cc="http://creativecommons.org/ns#"
   xmlns:rdf="http://www.w3.org/1999/02/22-rdf-syntax-ns#"
   xmlns:svg="http://www.w3.org/2000/svg"
   xmlns="http://www.w3.org/2000/svg"
   xmlns:sodipodi="http://sodipodi.sourceforge.net/DTD/sodipodi-0.dtd"
   width="170mm"
   height="60mm"
   viewBox="0 0 170 60"
   version="1.1"
   id="svg8">
  <defs
     id="defs2">
    <rect
       x="-184.45238"
       y="241.90475"
       width="606.2738"
       height="222.25"
       id="rect2783" />
    <rect
       x="-80.130951"
       y="-382.5119"
       width="300.86905"
       height="33.261906"
       id="rect2777" />
    <rect
       x="-358.32144"
       y="-403.67856"
       width="598.71429"
       height="181.42857"
       id="rect2771" />
  </defs>
  <metadata
     id="metadata5">
    <rdf:RDF>
      <cc:Work
         rdf:about="">
        <dc:format>image/svg+xml</dc:format>
        <dc:type
           rdf:resource="http://purl.org/dc/dcmitype/StillImage" />
        <dc:title></dc:title>
      </cc:Work>
    </rdf:RDF>
  </metadata>
  <g
     id="layer1">
    <g
       transform="matrix(0.11046722,0,0,0.11115296,-7.6449967,16.842831)"
       id="g945">
      <path
         id="path847"
         style="fill:#256b77;fill-opacity:1;stroke-width:0.999999"
         d="m 777.97852,-399.16602 c -30.58389,-0.33407 -61.4817,4.86002 -93.26368,15.57422 -74.14533,24.99558 -146.0647,84.40972 -187.39648,154.81446 -20.46017,34.852 -34.1987,73.12406 -41.5625,115.78906 -5.23442,30.327466 -5.99685,40.681441 -6.01953,81.845702 -0.0231,39.4410588 0.53986,48.693772 4.61914,76 15.73754,105.345418 62.98383,192.312138 145.96094,268.667968 48.31982,44.46404 94.1444,76.67083 209.64453,147.3418 8.38601,5.1312 15.07008,9.50646 14.85351,9.72265 -67.63856,15.18139 -112.90431,54.91564 -132.06836,99.13672 h 29.48243 c 9.67753,-27.93581 29.22837,-48.02317 61.92773,-42.86718 26.32426,-0.29424 100.93306,-6.01655 133.37891,-11.89844 10.46728,-6.07017 5.35302,-8.95188 1.90234,-6.80469 3.88195,-8.89165 12.46145,-12.85203 23.41992,-13.78516 v -37.72265 c -23.81918,-13.0703 -52.51442,-28.79102 -52.83984,-28.79102 -0.49021,0 -8.40936,-4.66786 -17.59766,-10.37304 -9.18826,-5.70532 -32.68007,-20.1746 -52.20508,-32.1543 -41.07435,-25.20141 -65.98051,-41.16369 -88.5,-56.7168 C 669.48318,285.63329 623.63113,243.66634 590.32812,199.20703 557.19071,154.96879 536.73064,107.62843 525.7832,49.857422 c -12.34662,-65.154737 -9.14883,-137.210378 8.51563,-191.865232 29.96024,-92.69888 116.61424,-168.61461 211.41601,-185.21875 17.71983,-3.10371 44.61406,-3.1449 61.5,-0.0937 11.18707,2.0214 24.75453,5.81477 36.05664,10.08008 5.32585,2.00991 5.69953,2.39164 9,9.23046 2.53028,5.24293 5.1671,8.72801 9.94336,13.13868 6.09105,5.62476 51.42643,40.11505 60.72657,46.19921 9.45173,6.18335 27.64233,5.49869 37.69531,-1.41796 8.54207,-5.87709 22.79461,-24.18294 27.23828,-34.98438 4.5507,-11.06154 2.23451,-25.7511 -5.39258,-34.19336 -8.10383,-8.96999 -58.81042,-47.98605 -68.81445,-52.94922 -5.31655,-2.63762 -7.61009,-3.10599 -19,-3.87304 -11.8413,-0.79748 -14.01557,-1.26717 -25.3125,-5.48438 -30.52441,-11.3948 -60.79306,-17.25772 -91.37695,-17.5918 z m 494.73628,0.59375 c -32.8588,0.0361 -55.2001,3.30243 -83,12.13477 -10.9807,3.48873 -11.0157,3.49154 -20,2.31641 -6.5715,-0.85939 -11.2378,-0.89279 -17.291,-0.12305 -7.9293,1.00834 -8.7342,1.35689 -18.5,8.00976 -23.0366,15.69355 -60.6211,44.32183 -68.584,52.24024 -10.0583,10.00222 -13.8832,27.05352 -9.2148,41.08203 3.0951,9.30081 11.011,20.68905 22.5312,32.41602 11.2618,11.46379 17.1428,14.92328 27.1641,15.9707 13.8522,1.44782 20.8225,-2.08384 55.9336,-28.33399 39.3993,-29.45619 48.966,-38.49363 51.4492,-48.60742 2.42,-9.85632 5.3687,-11.86243 21.8399,-14.85351 13.7892,-2.50405 43.2985,-3.49994 56.7675,-1.91602 62.9732,7.40531 125.7463,43.86033 173.254,100.61719 33.2757,39.75413 53.4617,89.48104 60.6796,149.476562 2.2227,18.47503 3.0143,57.73517 1.5528,76.9999999 -4.3401,57.2088201 -17.6506,106.4124881 -40.9844,151.4999981 -18.1962,35.16015 -37.362,61.41751 -67.0762,91.89258 -47.1162,48.32263 -84.826,76.11358 -200.539,147.78906 -50.9741,31.57459 -63.5259,39.10696 -64.1387,38.49414 -9.4246,5.18923 -17.9217,9.89255 -25.9863,14.36133 v 88.80078 l 77.1425,0.5625 c 50.6001,0.36881 94.11,0.92206 96.6895,1.23047 l 4.6895,0.56055 0.8105,5.65429 c 0.8456,9.32049 1.6554,19.49362 2.4121,30.02344 h 58.3379 c -0.1085,-48.23831 -14.1485,-49.29397 -20.2168,-61.58789 -6.5598,-13.2895 -21.8324,-10.78691 -36.0996,-16.125 -6.5769,-2.4607 -14.0485,-5.85072 -50.1133,-6.09375 -11.825,-0.0796 -28.8042,-5.48129 -34.0293,-5.83203 l -42.8359,6.43164 58.3554,-30.05859 c 118.1989,-71.41229 181.3101,-118.23864 231.2832,-171.60352 33.8092,-36.1039 52.9291,-62.78626 73.1582,-102.09765 27.655,-53.74247 42.2376,-107.003613 48.0235,-175.4023481 1.3296,-15.7219009 1.3175,-61.9514629 -0.019,-78.1953129 -7.8935,-95.863109 -42.3067,-171.197129 -106.5957,-233.343749 -50.8615,-49.16648 -110.9973,-79.9693 -179.8497,-92.12305 -11.1922,-1.97578 -16.3375,-2.29025 -37,-2.26758 z m -332.31636,1190.5293 -49.07032,0.002 c 0.25606,57.32236 1.52063,98.65063 3.3125,105.39844 5.29437,19.93671 19.36214,37.03553 37.25586,45.2832 8.36259,3.85463 18.77142,5.1494 41.69532,5.18946 l 14.8789,0.0273 -0.52539,16.75 c -0.79801,25.4976 -4.39904,42.16947 -10.97851,50.82617 -4.01586,5.2837 -12.37515,10.9374 -19.14844,12.9492 -15.79839,4.6924 -43.26529,4.1501 -128.10352,-2.5273 -60.58167,-4.7682 -72.28909,-5.3346 -110.5,-5.3535 -47.09631,-0.024 -73.81037,2.0887 -106.5,8.4238 -77.67726,15.0535 -148.51627,58.1351 -169.46093,103.0586 -4.93781,10.5909 -6.48722,18.0462 -6.51368,31.373 -0.0206,9.7977 0.40217,13.3764 2.30274,19.5 14.56747,46.9358 76.60456,81.567 184.44922,102.9629 37.60626,7.461 96.93748,14.9267 135.22265,17.0156 8.24999,0.4498 50.32502,0.6962 93.5,0.5469 71.65807,-0.2479 80.41748,-0.4606 100.5,-2.4277 50.93646,-4.9892 89.31256,-9.8655 126.49996,-16.0742 62.8731,-10.4971 132.1494,-28.9622 188.5,-50.2442 55.4255,-20.9325 98.5927,-42.7439 145.2989,-73.4179 9.5143,-6.2485 17.6754,-11.3614 18.1367,-11.3614 0.4612,0 6.9161,3.0828 14.3437,6.8516 18.5898,9.4325 40.6334,16.6604 55.1446,18.0801 13.9838,1.3664 38.8552,1.3617 53.5156,-0.012 18.8764,-1.7682 43.61,-10.4324 64.1406,-22.4687 39.9625,-23.4283 70.318,-64.0152 81.9492,-109.5703 5.2621,-20.6095 6.7369,-50.16503 3.5118,-70.38282 -6.3228,-39.63643 -22.1807,-71.21467 -49.4942,-98.55664 -27.6094,-27.6381 -62.5328,-46.02076 -96.0469,-50.55469 -19.2525,-2.60447 -51.317,-2.34763 -65,0.52148 -70.3324,14.74779 -126.0024,70.02506 -139.9648,138.97657 -4.375,21.60541 -3.5152,57.1191 1.9004,78.4824 4.772,18.8242 15.0657,43.6994 21.6621,52.3477 1.3972,1.8319 2.3961,4.107 2.2207,5.0566 -0.3937,2.1324 -20.5834,15.6862 -39.3184,26.3945 -71.8752,41.0817 -163.382,71.8715 -269.6464,90.7286 -48.0208,8.5215 -93.75219,13.6626 -153.85356,17.2988 -32.62091,1.9736 -128.84153,1.648 -160,-0.541 -99.59288,-6.9968 -169.29361,-21.8232 -221.5,-47.1172 -23.94814,-11.6029 -31.51797,-19.7571 -26.06445,-28.0801 7.51283,-11.4662 26.84025,-25.6282 52.34375,-38.3555 46.95466,-23.4326 97.16429,-31.7611 175.16992,-29.0547 28.80159,0.9993 42.02661,1.8181 103.05078,6.3809 85.20322,6.3707 117.97857,5.9294 140.93164,-1.8984 38.77822,-13.2246 63.72252,-41.4744 72.42972,-82.0293 2.38,-11.0851 4.8206,-31.65795 5.4433,-48.50002 l 0.6953,-18.7832 21.5,2.64062 c 11.8251,-0.35372 23.5167,-1.18697 25.9825,-1.85156 21.6904,-5.84591 43.2251,-29.75406 45.9902,-51.06055 0.5458,-4.20589 0.9772,-40.76898 0.9961,-84.03516 l 0.01,-18.80859 h -47.6504 c -4.9312,51.7455 10.4452,85.21542 -3.25,101.96289 -61.2357,29.0001 -138.35764,4.80697 -135.39847,0.72852 2.73819,-0.0229 5.6296,-0.0318 8.8457,0.0137 -5.55332,-0.81837 -8.33642,-0.70282 -8.8457,-0.0156 -13.41498,0.11233 -21.05566,0.73354 -21.46875,-1.09179 -4.35796,-41.43861 -5.50382,-74.26678 -5.02734,-101.59766 z m 621.34846,104.08871 c 21.0952,7.35111 30.7443,14.11735 44.7101,28.74918 13.7399,14.39509 22.1063,29.57 27.0528,49.0625 1.7955,7.07611 2.1464,11.2641 2.0996,25 -0.05,14.50508 -0.3701,17.67278 -2.6563,26.20508 -6.5006,24.26 -21.0011,45.8007 -40.9492,60.832 -8.8982,6.705 -14.9894,10.0156 -28.3242,15.3926 -7.1947,2.9011 -11.0779,3.7927 -19.9492,4.5781 -15.4016,1.3637 -35.1865,0.6889 -42.545,-1.4511 -7.2634,-2.1123 -10.9722,-3.9538 -10.9609,-5.4434 0.011,-1.8608 3.9566,-6.9982 12.4902,-16.2637 l 6,-6.5136 10,0.7304 c 22.8017,1.6677 41.0719,-3.3343 57.1465,-15.6465 21.6904,-16.6135 32.4037,-41.6011 30.2032,-70.44722 -2.2001,-28.83821 -19.8613,-50.37419 -41.0973,-60.69438 -16.9181,-8.22177 -49.5021,-11.34132 -71.8006,-2.35774 -17.0268,6.85972 -31.0499,22.71696 -39.0714,39.62951 -5.7138,12.04712 -5.285,31.08577 -4.5054,39.94993 0.3387,3.85 1.5157,9.8488 2.6172,13.3321 2.2873,7.2326 1.9456,9.862 -2.0429,15.6679 -4.0867,5.9487 -13.9313,16.5 -15.3946,16.5 -1.6966,0 -7.9176,-13.7612 -10.9257,-24.1699 -6.1163,-21.162 -5.7649,-42.12899 1.0468,-62.66211 11.6605,-35.14877 33.3108,-56.52448 64.4584,-68.63918 19.849,-7.72016 52.363,-8.32212 72.3979,-1.34047 z"
         transform="scale(0.26458333)" />
      <path
         id="path847-1"
         d="m 252.22815,251.17174 c -10.97569,0 -16.42775,-8.83067 -16.42775,-16.28829 v -40.63244 h -38.28991 c -8.80246,0 -17.63048,-8.27422 -17.63048,-16.1865 0,-14.29406 0.0317,-36.4656 0.0317,-36.4656 0,-8.00785 8.03832,-16.43707 17.59875,-16.43707 h 38.28991 l -0.0611,-40.796101 c -0.0116,-7.71853 8.19438,-15.58857 16.4004,-15.66918 l 38.37278,0.0714 c 7.99063,0 15.83266,7.40072 15.83266,15.63527 l -8e-5,40.758661 h 39.48769 c 8.44039,0 17.81231,8.28511 17.74136,16.43707 0,0 -0.0212,13.39978 -0.0347,36.46555 0,8.86161 -8.60193,16.1865 -17.7066,16.1865 h -39.48767 v 40.63244 c 0,8.84414 -7.47582,16.25749 -15.83266,16.25749 z m 38.2843,-65.07244 c 0,-3.09834 4.14802,-8.03479 6.99258,-8.03479 h 48.32777 v -36.4656 c 0,0 -30.22523,0.13195 -48.32777,0 -2.49133,0 -6.99258,-4.09807 -6.99258,-6.949 V 84.403229 l -38.36458,0.03 0.0418,51.595091 c -0.0418,2.70929 -3.92641,5.5706 -7.31797,5.5706 h -47.36122 l 2e-5,36.43266 47.3612,0.0329 c 4.2641,0.0541 7.27616,4.05749 7.27616,8.03479 v 48.78414 h 38.3839 z"
         style="fill:#c3533d;fill-opacity:1;stroke-width:0.264583" />
    </g>
    <text
       xml:space="preserve"
       id="text2769"
       style="font-style:normal;font-weight:normal;font-size:50.8px;line-height:125%;font-family:sans-serif;letter-spacing:0px;word-spacing:0px;white-space:pre;shape-inside:url(#rect2771);fill:#c4543e;fill-opacity:1;stroke:none;stroke-width:0.264583px;stroke-linecap:butt;stroke-linejoin:miter;stroke-opacity:1;"
       transform="matrix(0.20298467,0,0,0.18571281,123.55742,85.282655)"><tspan
         sodipodi:role="line"
         x="-358.32227"
         y="-338.51451"><tspan
           style="font-style:normal;font-variant:normal;font-weight:bold;font-stretch:normal;font-size:111.125px;font-family:Raleway;-inkscape-font-specification:'Raleway Bold';fill:#c4543e;fill-opacity:1">AMY SIPLE</tspan></tspan></text>
    <text
       xml:space="preserve"
       id="text2781"
       style="font-style:normal;font-weight:normal;font-size:63.5px;line-height:0;font-family:sans-serif;letter-spacing:0.396875px;word-spacing:0px;white-space:pre;shape-inside:url(#rect2783);fill:#256b77;fill-opacity:1;stroke:none;stroke-width:0.264583px;stroke-linecap:butt;stroke-linejoin:miter;stroke-opacity:1;"
       transform="matrix(0.21041808,0,0,0.20082969,88.890483,-19.681297)"><tspan
         sodipodi:role="line"
         x="-184.45312"
         y="287.22819"><tspan
           dx="0 0 0 0 0 -0.26457536 0.26458073"
           style="font-style:normal;font-variant:normal;font-weight:normal;font-stretch:normal;font-size:51.1528px;line-height:125%;font-family:'Open Sans';-inkscape-font-specification:'Open Sans';letter-spacing:6.61458px;word-spacing:0.264583px;fill:#256b77;fill-opacity:1">Nurse Practitioner</tspan><tspan
           dx="27.4953" /></tspan><tspan
         sodipodi:role="line"
         x="-184.45312"
         y="347.98686"><tspan
           dx="0 0 0 0 0 0 0 0 -0.26458871 0.26460266 -0.26458871 0.26457214"
           style="font-style:normal;font-variant:normal;font-weight:normal;font-stretch:normal;font-size:47.5612px;line-height:125%;font-family:'Open Sans';-inkscape-font-specification:'Open Sans';letter-spacing:6.61458px;word-spacing:0.264583px;fill:#256b77;fill-opacity:1">Educator + Speaker</tspan></tspan></text>
    <text
       xml:space="preserve"
       id="text2775"
       style="font-style:normal;font-weight:normal;font-size:3.96875px;line-height:125%;font-family:sans-serif;letter-spacing:0px;word-spacing:0px;white-space:pre;shape-inside:url(#rect2777);fill:#000000;fill-opacity:1;stroke:none;stroke-width:0.264583px;stroke-linecap:butt;stroke-linejoin:miter;stroke-opacity:1;" />
  </g>
</svg>
