<?xml version="1.0" encoding="UTF-8" standalone="no"?>
<!-- Generator: Adobe Illustrator 23.0.5, SVG Export Plug-In . SVG Version: 6.00 Build 0)  -->

<svg
   xmlns:dc="http://purl.org/dc/elements/1.1/"
   xmlns:cc="http://creativecommons.org/ns#"
   xmlns:rdf="http://www.w3.org/1999/02/22-rdf-syntax-ns#"
   xmlns:svg="http://www.w3.org/2000/svg"
   xmlns="http://www.w3.org/2000/svg"
   xmlns:sodipodi="http://sodipodi.sourceforge.net/DTD/sodipodi-0.dtd"
   xmlns:inkscape="http://www.inkscape.org/namespaces/inkscape"
   version="1.1"
   id="Layer_1"
   x="0px"
   y="0px"
   viewBox="0 0 249.2 57.400002"
   xml:space="preserve"
   sodipodi:docname="GlobalTechTimes-logo-b37-SVG-Resized-Replacement_cropped.svg"
   width="249.2"
   height="57.400002"
   inkscape:version="0.92.3 (2405546, 2018-03-11)"><metadata
   id="metadata96"><rdf:RDF><cc:Work
       rdf:about=""><dc:format>image/svg+xml</dc:format><dc:type
         rdf:resource="http://purl.org/dc/dcmitype/StillImage" /></cc:Work></rdf:RDF></metadata><defs
   id="defs94" /><sodipodi:namedview
   pagecolor="#ffffff"
   bordercolor="#666666"
   borderopacity="1"
   objecttolerance="10"
   gridtolerance="10"
   guidetolerance="10"
   inkscape:pageopacity="0"
   inkscape:pageshadow="2"
   inkscape:window-width="640"
   inkscape:window-height="480"
   id="namedview92"
   showgrid="false"
   inkscape:zoom="0.835"
   inkscape:cx="132.3"
   inkscape:cy="28.2"
   inkscape:window-x="0"
   inkscape:window-y="0"
   inkscape:window-maximized="0"
   inkscape:current-layer="Layer_1" />
<style
   type="text/css"
   id="style2">
	.st0{fill:url(#SVGID_1_);}
	.st1{fill:url(#SVGID_2_);}
	.st2{fill:url(#SVGID_3_);}
	.st3{fill:url(#SVGID_4_);}
	.st4{fill:url(#SVGID_5_);}
	.st5{fill:#59595B;}
	.st6{fill:#8E8E8E;}
</style>
<g
   id="g89"
   transform="translate(-67.7,-83.3)">
	<g
   id="g49">
		<linearGradient
   id="SVGID_1_"
   gradientUnits="userSpaceOnUse"
   x1="92.961304"
   y1="111.9444"
   x2="124.543"
   y2="111.9444">
			<stop
   offset="0"
   style="stop-color:#FD92FD"
   id="stop4" />
			<stop
   offset="0.5054"
   style="stop-color:#806DFD"
   id="stop6" />
			<stop
   offset="1"
   style="stop-color:#6A2DFD"
   id="stop8" />
		</linearGradient>
		<path
   class="st0"
   d="m 124.5,111.9 c 0,-8.7 -7.1,-15.8 -15.8,-15.8 -8.7,0 -15.8,7.1 -15.8,15.8 0,8.7 7.1,15.8 15.8,15.8 8.8,0 15.8,-7 15.8,-15.8 z m -4.3,7.4 c -0.8,-0.3 -1.6,-0.5 -2.5,-0.8 0.5,-1.8 0.8,-3.7 0.9,-5.7 h 3.7 c -0.1,2.3 -0.8,4.5 -2.1,6.5 z m -0.1,-14.9 c 1.3,2 2.1,4.3 2.3,6.8 h -3.7 c -0.1,-2.2 -0.4,-4.2 -1,-6 0.8,-0.3 1.6,-0.6 2.4,-0.8 z M 119,103 c -0.6,0.2 -1.3,0.4 -1.9,0.5 -0.6,-1.4 -1.3,-2.7 -2.2,-3.7 1.6,0.8 3,1.9 4.1,3.2 z m -6,8.1 c 0,-1.6 -0.1,-3.4 -0.3,-5.2 1.2,-0.1 2.3,-0.3 3.4,-0.5 0.5,1.7 0.9,3.6 0.9,5.7 z m 4,1.7 c -0.1,1.9 -0.4,3.8 -0.9,5.4 -1.1,-0.2 -2.2,-0.4 -3.4,-0.5 0.2,-1.7 0.3,-3.4 0.3,-4.9 z m -1.5,-8.9 c -0.9,0.2 -1.9,0.3 -3,0.4 -0.3,-2.2 -0.8,-4.2 -1.4,-5.7 1.8,0.9 3.3,2.8 4.4,5.3 z m -9.4,7.2 c 0,-1.9 0.1,-3.6 0.3,-5.1 0.8,0 1.6,0.1 2.4,0.1 0.8,0 1.6,0 2.4,-0.1 0.2,1.5 0.3,3.2 0.3,5.1 z m 5.3,1.7 c 0,1.8 -0.1,3.4 -0.3,4.8 -0.8,0 -1.6,-0.1 -2.4,-0.1 -0.8,0 -1.6,0 -2.4,0.1 -0.1,-1.4 -0.2,-3 -0.3,-4.8 z m -3,-14.5 c 0.1,0 0.3,0 0.4,0 0.1,0 0.3,0 0.4,0 0.6,0.7 1.3,2.7 1.8,6.1 -0.7,0 -1.4,0.1 -2.2,0.1 -0.7,0 -1.5,0 -2.2,-0.1 0.5,-3.3 1.2,-5.4 1.8,-6.1 z m -2,0.3 c -0.7,1.5 -1.1,3.5 -1.4,5.7 -1.1,-0.1 -2.1,-0.2 -3,-0.4 1.1,-2.5 2.6,-4.4 4.4,-5.3 z m -1.9,12.5 h -4 c 0.1,-2.1 0.4,-4 0.9,-5.7 1.1,0.2 2.2,0.4 3.4,0.5 -0.2,1.9 -0.3,3.7 -0.3,5.2 z m 0.3,6.6 c -1.2,0.1 -2.4,0.3 -3.4,0.5 -0.5,-1.6 -0.8,-3.5 -0.9,-5.4 h 4 c 0,1.4 0.1,3.1 0.3,4.9 z m -2.2,-17.9 c -0.8,1.1 -1.6,2.3 -2.2,3.7 -0.7,-0.2 -1.3,-0.3 -1.9,-0.5 1.1,-1.3 2.5,-2.4 4.1,-3.2 z m -5.2,4.6 c 0.8,0.3 1.6,0.5 2.4,0.7 -0.6,1.8 -0.9,3.9 -1,6 h -3.7 c 0.2,-2.5 1,-4.8 2.3,-6.7 z m -0.1,14.9 c -1.2,-1.9 -2,-4.1 -2.1,-6.5 h 3.7 c 0.1,2 0.4,4 0.9,5.7 -0.9,0.2 -1.8,0.5 -2.5,0.8 z m 1,1.3 c 0.6,-0.2 1.3,-0.4 2,-0.6 0.6,1.5 1.4,2.9 2.3,4 -1.7,-0.8 -3.2,-1.9 -4.3,-3.4 z m 3.6,-0.9 c 1,-0.2 2,-0.3 3.1,-0.4 0.3,2.3 0.8,4.5 1.5,6 -2,-0.9 -3.6,-2.9 -4.6,-5.6 z m 7.2,5.9 c -0.1,0 -0.3,0 -0.4,0 -0.1,0 -0.3,0 -0.4,0 -0.6,-0.7 -1.3,-2.9 -1.8,-6.4 0.7,0 1.5,-0.1 2.2,-0.1 0.8,0 1.5,0 2.2,0.1 -0.4,3.5 -1.2,5.6 -1.8,6.4 z m 2,-0.3 c 0.7,-1.5 1.2,-3.7 1.5,-6 1.1,0.1 2.1,0.2 3.1,0.4 -1.1,2.7 -2.7,4.7 -4.6,5.6 z m 3.8,-1.2 c 0.9,-1.1 1.7,-2.5 2.3,-4 0.7,0.2 1.4,0.4 2,0.6 -1.1,1.4 -2.6,2.5 -4.3,3.4 z"
   id="path11"
   inkscape:connector-curvature="0"
   style="fill:url(#SVGID_1_)" />
		<linearGradient
   id="SVGID_2_"
   gradientUnits="userSpaceOnUse"
   x1="109.6608"
   y1="126.7034"
   x2="137.35719"
   y2="126.7034">
			<stop
   offset="0"
   style="stop-color:#FD92FD"
   id="stop13" />
			<stop
   offset="0.5054"
   style="stop-color:#806DFD"
   id="stop15" />
			<stop
   offset="1"
   style="stop-color:#6A2DFD"
   id="stop17" />
		</linearGradient>
		<path
   class="st1"
   d="m 133.7,112.9 h -4.6 c -0.5,10.5 -8.9,19 -19.5,19.5 v 5.1 c 0.9,0 1.8,-0.1 2.7,-0.2 l 1.3,3.4 6,-1.7 -0.7,-3.6 c 1.8,-0.8 3.6,-1.9 5.2,-3.1 l 2.8,2.4 4.4,-4.4 -2.5,-2.9 c 1.2,-1.6 2.2,-3.4 3,-5.2 l 3.8,0.8 1.7,-6 -3.8,-1.4 c 0.2,-1 0.2,-1.9 0.2,-2.7 z"
   id="path20"
   inkscape:connector-curvature="0"
   style="fill:url(#SVGID_2_)" />
		<linearGradient
   id="SVGID_3_"
   gradientUnits="userSpaceOnUse"
   x1="67.754303"
   y1="126.7017"
   x2="107.8444"
   y2="126.7017">
			<stop
   offset="0"
   style="stop-color:#FD92FD"
   id="stop22" />
			<stop
   offset="0.5054"
   style="stop-color:#806DFD"
   id="stop24" />
			<stop
   offset="1"
   style="stop-color:#6A2DFD"
   id="stop26" />
		</linearGradient>
		<path
   class="st2"
   d="m 88.4,112.9 h -4.9 c 0,0.9 0.1,1.8 0.2,2.7 l -3.5,1.3 0.6,2.2 h -4.1 c -0.2,-0.8 -0.9,-1.4 -1.8,-1.4 -1,0 -1.9,0.8 -1.9,1.9 0,1 0.8,1.9 1.9,1.9 0.9,0 1.6,-0.6 1.8,-1.4 h 4.4 l 0.8,2.8 3.6,-0.7 c 0.4,1 0.9,2 1.5,3 H 71.4 c -0.2,-0.8 -0.9,-1.4 -1.8,-1.4 -1,0 -1.9,0.8 -1.9,1.9 0,1 0.8,1.9 1.9,1.9 0.9,0 1.6,-0.6 1.8,-1.4 h 16.2 c 0.3,0.4 0.6,0.9 0.9,1.3 l -2.3,2.7 4.4,4.4 2.7,-2.3 c 1.7,1.3 3.4,2.3 5.3,3.1 l -0.7,3.5 6,1.7 1.2,-3.3 c 0.9,0.1 1.8,0.2 2.7,0.2 v -5.1 c -10.5,-0.5 -19,-9 -19.4,-19.5 z"
   id="path29"
   inkscape:connector-curvature="0"
   style="fill:url(#SVGID_3_)" />
		<linearGradient
   id="SVGID_4_"
   gradientUnits="userSpaceOnUse"
   x1="69.5541"
   y1="97.869301"
   x2="107.8418"
   y2="97.869301">
			<stop
   offset="0"
   style="stop-color:#FD92FD"
   id="stop31" />
			<stop
   offset="0.5054"
   style="stop-color:#806DFD"
   id="stop33" />
			<stop
   offset="1"
   style="stop-color:#6A2DFD"
   id="stop35" />
		</linearGradient>
		<path
   class="st3"
   d="m 71.4,112.4 c 0.9,0 1.6,-0.6 1.8,-1.4 h 10.3 3.4 1.5 c 0.5,-10.5 8.9,-19 19.5,-19.5 v -4.4 c -0.8,0 -1.7,0.1 -2.5,0.2 l -1.5,-4 -6,1.7 0.8,4.1 c -1.7,0.7 -3.4,1.7 -5,2.9 l -3.1,-2.7 -4.4,4.4 2.6,3.1 c -1.2,1.6 -2.2,3.3 -3,5 l -3.9,-0.8 -1.7,6 3.6,1.3 c -0.1,0.5 -0.1,1.1 -0.2,1.6 H 73.2 c -0.2,-0.8 -0.9,-1.4 -1.8,-1.4 -1,0 -1.9,0.8 -1.9,1.9 0.1,1.2 0.9,2 1.9,2 z"
   id="path38"
   inkscape:connector-curvature="0"
   style="fill:url(#SVGID_4_)" />
		<linearGradient
   id="SVGID_5_"
   gradientUnits="userSpaceOnUse"
   x1="109.6573"
   y1="97.870201"
   x2="150.11189"
   y2="97.870201">
			<stop
   offset="0"
   style="stop-color:#FD92FD"
   id="stop40" />
			<stop
   offset="0.5054"
   style="stop-color:#806DFD"
   id="stop42" />
			<stop
   offset="1"
   style="stop-color:#6A2DFD"
   id="stop44" />
		</linearGradient>
		<path
   class="st4"
   d="m 148.3,97 c -0.9,0 -1.6,0.6 -1.8,1.4 l -17,-0.1 c -0.3,-0.4 -0.6,-0.9 -0.9,-1.3 l 2.8,-3.2 -4.4,-4.4 -3.3,2.8 c -1.5,-1.2 -3.2,-2.1 -4.9,-2.9 l 0.8,-4.2 -6,-1.7 -1.5,4 c -0.8,-0.1 -1.7,-0.2 -2.5,-0.2 v 4.4 c 10.5,0.5 19,8.9 19.5,19.5 h 4.6 c 0,0 0,0 0,0 h 10.5 c 0.2,0.8 0.9,1.4 1.8,1.4 1,0 1.9,-0.8 1.9,-1.9 0,-1 -0.8,-1.9 -1.9,-1.9 -0.9,0 -1.6,0.6 -1.8,1.4 h -10.5 c 0,-0.5 -0.1,-1 -0.2,-1.5 l 3.9,-1.4 -0.8,-2.8 h 4 c 0.2,0.8 0.9,1.4 1.8,1.4 1,0 1.9,-0.8 1.9,-1.9 0,-1 -0.8,-1.9 -1.9,-1.9 -0.9,0 -1.6,0.6 -1.8,1.4 h -4.3 l -0.6,-2.2 -4.1,0.8 c -0.4,-0.9 -0.9,-1.8 -1.4,-2.6 l 16.3,0.1 c 0.2,0.8 0.9,1.4 1.8,1.4 1,0 1.9,-0.8 1.9,-1.9 -0.1,-1.2 -0.9,-2 -1.9,-2 z"
   id="path47"
   inkscape:connector-curvature="0"
   style="fill:url(#SVGID_5_)" />
	</g>
	<g
   id="g87">
		<g
   id="g63">
			<path
   class="st5"
   d="m 176.6,102.4 h 5.5 v 10.5 c -1.4,1.1 -3,1.9 -4.9,2.4 -1.8,0.6 -3.7,0.8 -5.6,0.8 -2.7,0 -5.1,-0.6 -7.2,-1.7 -2.1,-1.1 -3.8,-2.7 -5,-4.8 -1.2,-2 -1.8,-4.3 -1.8,-6.9 0,-2.6 0.6,-4.8 1.8,-6.9 1.2,-2 2.9,-3.6 5.1,-4.8 2.2,-1.1 4.6,-1.7 7.3,-1.7 2.3,0 4.3,0.4 6.2,1.1 1.8,0.8 3.4,1.9 4.6,3.3 l -3.8,3.5 c -1.8,-1.9 -4.1,-2.9 -6.7,-2.9 -1.6,0 -3.1,0.3 -4.4,1 -1.3,0.7 -2.3,1.7 -3,2.9 -0.7,1.3 -1.1,2.7 -1.1,4.3 0,1.6 0.4,3 1.1,4.3 0.7,1.3 1.7,2.2 3,2.9 1.3,0.7 2.7,1.1 4.3,1.1 1.7,0 3.3,-0.4 4.6,-1.1 z"
   id="path51"
   inkscape:connector-curvature="0"
   style="fill:#59595b" />
			<path
   class="st5"
   d="m 187.6,89.9 h 6 v 20.9 h 12.9 v 4.9 h -18.9 z"
   id="path53"
   inkscape:connector-curvature="0"
   style="fill:#59595b" />
			<path
   class="st5"
   d="m 214.7,114.4 c -2.1,-1.2 -3.8,-2.7 -5,-4.8 -1.2,-2 -1.8,-4.3 -1.8,-6.8 0,-2.5 0.6,-4.8 1.8,-6.8 1.2,-2 2.9,-3.6 5,-4.8 2.2,-1.2 4.6,-1.7 7.2,-1.7 2.7,0 5.1,0.6 7.2,1.7 2.1,1.2 3.8,2.7 5,4.8 1.2,2 1.8,4.3 1.8,6.8 0,2.5 -0.6,4.8 -1.8,6.8 -1.2,2 -2.9,3.6 -5,4.8 -2.1,1.2 -4.5,1.7 -7.2,1.7 -2.6,0.1 -5.1,-0.5 -7.2,-1.7 z m 11.4,-4.4 c 1.2,-0.7 2.2,-1.7 2.9,-2.9 0.7,-1.3 1.1,-2.7 1.1,-4.3 0,-1.6 -0.3,-3 -1.1,-4.3 -0.7,-1.3 -1.7,-2.2 -2.9,-2.9 -1.2,-0.7 -2.6,-1.1 -4.1,-1.1 -1.5,0 -2.9,0.4 -4.1,1.1 -1.2,0.7 -2.2,1.7 -2.9,2.9 -0.7,1.3 -1.1,2.7 -1.1,4.3 0,1.6 0.3,3 1.1,4.3 0.7,1.3 1.7,2.2 2.9,2.9 1.2,0.7 2.6,1.1 4.1,1.1 1.5,0 2.8,-0.4 4.1,-1.1 z"
   id="path55"
   inkscape:connector-curvature="0"
   style="fill:#59595b" />
			<path
   class="st5"
   d="m 263,104.7 c 0.8,1.1 1.3,2.4 1.3,4 0,2.3 -0.9,4 -2.6,5.2 -1.8,1.2 -4.3,1.8 -7.7,1.8 H 240.7 V 89.9 h 12.6 c 3.1,0 5.6,0.6 7.2,1.8 1.7,1.2 2.5,2.8 2.5,4.9 0,1.3 -0.3,2.4 -0.9,3.4 -0.6,1 -1.4,1.8 -2.5,2.3 1.4,0.5 2.5,1.3 3.4,2.4 z M 246.5,94.4 v 6.1 h 5.9 c 1.5,0 2.6,-0.3 3.4,-0.8 0.8,-0.5 1.1,-1.3 1.1,-2.3 0,-1 -0.4,-1.8 -1.1,-2.3 -0.8,-0.5 -1.9,-0.8 -3.4,-0.8 h -5.9 z m 10.5,16.1 c 0.8,-0.5 1.2,-1.3 1.2,-2.4 0,-2.1 -1.6,-3.2 -4.8,-3.2 h -7 v 6.4 h 7 c 1.6,-0.1 2.8,-0.3 3.6,-0.8 z"
   id="path57"
   inkscape:connector-curvature="0"
   style="fill:#59595b" />
			<path
   class="st5"
   d="m 285.7,110.2 h -12 l -2.3,5.5 h -6.1 l 11.5,-25.8 h 5.9 l 11.5,25.8 H 288 Z m -1.8,-4.5 -4.1,-9.9 -4.1,9.9 z"
   id="path59"
   inkscape:connector-curvature="0"
   style="fill:#59595b" />
			<path
   class="st5"
   d="m 297,89.9 h 6 v 20.9 h 12.9 v 4.9 H 297 Z"
   id="path61"
   inkscape:connector-curvature="0"
   style="fill:#59595b" />
		</g>
		<g
   id="g85">
			<g
   id="g83">
				<path
   class="st6"
   d="m 164.1,134.4 h -1.3 v -11.2 h -3.6 v -1.3 h 8.4 v 1.3 H 164 v 11.2 z"
   id="path65"
   inkscape:connector-curvature="0"
   style="fill:#8e8e8e" />
				<path
   class="st6"
   d="m 183.5,134.4 h -6.3 v -12.5 h 6.3 v 1.3 h -5 v 4 h 4.7 v 1.3 h -4.7 v 4.6 h 5 z"
   id="path67"
   inkscape:connector-curvature="0"
   style="fill:#8e8e8e" />
				<path
   class="st6"
   d="m 198.6,123 c -1.2,0 -2.2,0.5 -2.9,1.4 -0.7,0.9 -1.1,2.2 -1.1,3.8 0,1.6 0.3,2.9 1,3.8 0.7,0.9 1.7,1.3 2.9,1.3 0.8,0 1.7,-0.2 2.7,-0.5 v 1.3 c -0.8,0.3 -1.7,0.5 -2.9,0.5 -1.7,0 -2.9,-0.6 -3.8,-1.7 -0.9,-1.1 -1.3,-2.7 -1.3,-4.8 0,-1.3 0.2,-2.4 0.6,-3.4 0.4,-1 1.1,-1.7 1.9,-2.2 0.8,-0.5 1.8,-0.8 2.9,-0.8 1.2,0 2.2,0.2 3.1,0.7 l -0.6,1.2 c -0.8,-0.3 -1.6,-0.6 -2.5,-0.6 z"
   id="path69"
   inkscape:connector-curvature="0"
   style="fill:#8e8e8e" />
				<path
   class="st6"
   d="m 220.1,134.4 h -1.3 v -5.9 h -5.9 v 5.9 h -1.3 v -12.5 h 1.3 v 5.3 h 5.9 v -5.3 h 1.3 z"
   id="path71"
   inkscape:connector-curvature="0"
   style="fill:#8e8e8e" />
				<path
   class="st6"
   d="m 246.5,134.4 h -1.3 v -11.2 h -3.6 v -1.3 h 8.4 v 1.3 h -3.6 v 11.2 z"
   id="path73"
   inkscape:connector-curvature="0"
   style="fill:#8e8e8e" />
				<path
   class="st6"
   d="m 259.6,134.4 v -12.5 h 1.3 v 12.5 z"
   id="path75"
   inkscape:connector-curvature="0"
   style="fill:#8e8e8e" />
				<path
   class="st6"
   d="M 276.8,134.4 273,123.3 h -0.1 c 0.1,0.9 0.1,1.9 0.1,3.1 v 7.9 h -1.2 v -12.5 h 2 l 3.6,10.3 h 0.1 l 3.6,-10.3 h 2 v 12.5 h -1.3 v -8 c 0,-0.9 0,-1.9 0.1,-3 h -0.1 l -3.8,11 h -1.2 z"
   id="path77"
   inkscape:connector-curvature="0"
   style="fill:#8e8e8e" />
				<path
   class="st6"
   d="m 300.2,134.4 h -6.3 v -12.5 h 6.3 v 1.3 h -5 v 4 h 4.7 v 1.3 h -4.7 v 4.6 h 5 z"
   id="path79"
   inkscape:connector-curvature="0"
   style="fill:#8e8e8e" />
				<path
   class="st6"
   d="m 316.9,131.1 c 0,1.1 -0.4,2 -1.1,2.6 -0.7,0.6 -1.7,0.9 -2.9,0.9 -1.3,0 -2.4,-0.2 -3.1,-0.6 v -1.4 c 0.5,0.2 1,0.4 1.5,0.5 0.5,0.1 1.1,0.2 1.6,0.2 0.9,0 1.5,-0.2 2,-0.6 0.4,-0.4 0.7,-0.9 0.7,-1.5 0,-0.4 -0.1,-0.8 -0.2,-1.1 -0.2,-0.3 -0.4,-0.5 -0.8,-0.8 -0.4,-0.2 -0.9,-0.5 -1.7,-0.8 -1,-0.4 -1.8,-0.9 -2.2,-1.5 -0.4,-0.6 -0.7,-1.3 -0.7,-2.2 0,-1 0.3,-1.7 1,-2.3 0.7,-0.6 1.5,-0.9 2.6,-0.9 1.1,0 2.1,0.2 3.1,0.7 l -0.4,1.3 c -0.9,-0.4 -1.8,-0.6 -2.7,-0.6 -0.7,0 -1.2,0.2 -1.6,0.5 -0.4,0.3 -0.6,0.8 -0.6,1.4 0,0.4 0.1,0.8 0.2,1.1 0.1,0.3 0.4,0.5 0.7,0.8 0.3,0.2 0.9,0.5 1.6,0.8 1.2,0.5 2,1 2.4,1.5 0.3,0.4 0.6,1.1 0.6,2 z"
   id="path81"
   inkscape:connector-curvature="0"
   style="fill:#8e8e8e" />
			</g>
		</g>
	</g>
</g>
</svg>