<?xml version="1.0" encoding="UTF-8" standalone="no"?>
<svg
   xmlns:dc="http://purl.org/dc/elements/1.1/"
   xmlns:cc="http://creativecommons.org/ns#"
   xmlns:rdf="http://www.w3.org/1999/02/22-rdf-syntax-ns#"
   xmlns:svg="http://www.w3.org/2000/svg"
   xmlns="http://www.w3.org/2000/svg"
   xml:space="preserve"
   width="9.8964205in"
   height="3.248127in"
   version="1.0"
   shape-rendering="geometricPrecision"
   text-rendering="geometricPrecision"
   image-rendering="optimizeQuality"
   fill-rule="evenodd"
   clip-rule="evenodd"
   viewBox="0 0 989642.92 324812.69"
   id="svg30"><metadata
   id="metadata36"><rdf:RDF><cc:Work
       rdf:about=""><dc:format>image/svg+xml</dc:format><dc:type
         rdf:resource="http://purl.org/dc/dcmitype/StillImage" /></cc:Work></rdf:RDF></metadata><defs
   id="defs34" />
 <g
   id="Layer_x0020_1"
   transform="translate(-89824,-48565.413)">
  <metadata
   id="CorelCorpID_0Corel-Layer" />
  <path
   fill="#166ec7"
   d="m 786920,281837 c 0,9236 1738,16407 5215,21514 3477,5106 8502,7660 15076,7660 6573,0 13065,-2337 19476,-7009 l 7007,12550 c -7714,6302 -17384,9452 -29009,9452 -11626,0 -20780,-3667 -27462,-11000 -6682,-7334 -10023,-18173 -10023,-32515 0,-14342 3830,-25125 11489,-32351 7661,-7225 16298,-10838 25914,-10838 9616,0 18552,2228 26810,6682 v 21187 l -14994,1141 v -7823 c 0,-2933 -1060,-4753 -3178,-5459 -2119,-707 -4319,-1060 -6601,-1060 -13147,0 -19720,9290 -19720,27869 z m 265655,-42537 c 8149,0 14614,1983 19394,5949 4781,3966 7172,9534 7172,16705 0,4781 -1033,8991 -3097,12631 -2064,3640 -4618,6492 -7660,8556 -3042,2065 -6736,3749 -11082,5053 -7280,2173 -15483,3259 -24610,3259 326,5759 2119,10404 5378,13935 3260,3531 8258,5297 14994,5297 6736,0 13473,-2391 20209,-7172 l 6194,13202 c -2174,1955 -5841,3966 -11002,6030 -5161,2064 -11055,3097 -17683,3097 -13255,0 -22980,-3668 -29173,-11001 -6193,-7334 -9289,-17412 -9289,-30233 0,-12821 3531,-23577 10593,-32269 7063,-8693 16950,-13039 29662,-13039 z m -7416,37241 c 3967,-706 7634,-2282 11002,-4727 3368,-2444 5052,-5351 5052,-8719 0,-6628 -3259,-9941 -9779,-9941 -6084,0 -10756,2417 -14016,7252 -3259,4835 -5052,10621 -5378,17357 4780,-109 9154,-516 13119,-1222 z m -98683,28928 v -45145 c 0,-1738 -298,-2960 -896,-3667 -598,-706 -1657,-1113 -3178,-1222 l -6845,-489 v -13201 h 27543 v 12223 c 1956,-4237 4998,-7741 9127,-10512 4129,-2771 8882,-4156 14260,-4156 5379,0 10512,1195 15402,3586 v 24283 l -15157,1141 v -7497 c 0,-2173 -543,-3531 -1630,-4074 -1195,-543 -2662,-815 -4400,-815 -4346,0 -7905,1548 -10676,4645 -2770,3096 -4156,7035 -4156,11816 v 37811 l 14180,652 v 12875 h -43678 v -12386 l 5378,-489 c 1630,-218 2825,-679 3585,-1386 761,-706 1141,-2037 1141,-3993 z m -29336,-60465 v 60628 c 0,1739 299,2934 896,3586 597,652 1657,1032 3178,1141 l 5216,326 v 13038 h -25914 v -9453 l -489,-163 c -5433,7823 -12875,11735 -22328,11735 -11082,0 -19286,-3532 -24610,-10594 -5324,-7063 -7985,-16732 -7985,-29010 0,-14777 3585,-26294 10756,-34551 7171,-8258 17927,-12387 32270,-12387 9235,0 18905,1902 29010,5704 z m -18906,52805 v -42211 c -3042,-1413 -7225,-2118 -12549,-2118 -7280,0 -12550,2933 -15809,8800 -3259,5867 -4889,13636 -4889,23306 0,17602 5650,26403 16949,26403 4781,0 8693,-1440 11735,-4319 3042,-2880 4563,-6166 4563,-9861 z"
   id="path3" />
 </g>
 <g
   id="Layer_x0020_2"
   transform="translate(-89824,-48565.413)">
  <metadata
   id="CorelCorpID_1Corel-Layer" />
  <path
   fill="#eb3300"
   d="m 182585,48565 v 0 c 31966,0 58119,26153 58119,58118 v 24639 h 3 v 63501 c 0,20912 11195,39335 27886,49577 -7756,3853 -16478,6026 -25684,6026 h -1 c -31965,0 -58118,-26154 -58118,-58119 v -24638 h -3 v -63501 c 0,-20913 -11195,-39336 -27886,-49577 7756,-3853 16478,-6026 25684,-6026 z"
   id="path7" />
 </g>
 <g
   id="Layer_x0020_3"
   transform="translate(-89824,-48565.413)">
  <metadata
   id="CorelCorpID_2Corel-Layer" />
  <path
   fill="#ff9e1b"
   d="m 89824,160198 v 0 c 0,-31966 26154,-58118 58119,-58119 l 29910,-1 v 46131 6710 h 3 v 3077 h -32429 c -20912,0 -39335,11195 -49577,27886 -3852,-7756 -6026,-16478 -6026,-25684 z"
   id="path11" />
 </g>
 <g
   id="Layer_x0020_4"
   transform="translate(-89824,-48565.413)">
  <metadata
   id="CorelCorpID_3Corel-Layer" />
  <path
   fill="#166ec7"
   d="m 247638,140995 32428,-1 c 20912,0 39336,-11194 49577,-27886 3853,7757 6026,16479 6026,25685 v 0 c 0,31965 -26153,58118 -58119,58119 l -29909,1 v -46132 -6710 h -3 z"
   id="path15" />
 </g>
 <g
   id="Layer_x0020_5"
   transform="translate(-89824,-48565.413)">
  <metadata
   id="CorelCorpID_4Corel-Layer" />
  <path
   fill="#166ec7"
   d="m 279490,372865 v -37833 h -4324 v 37833 z m 42914,0 v -37833 h -4270 v 30429 l -22700,-30429 h -4486 v 37833 h 4324 v -30374 l 22700,30374 z m 11512,-37833 v 37833 h 15133 c 11134,0 19619,-8161 19619,-18916 0,-10756 -8431,-18917 -19457,-18917 z m 4323,4162 h 10864 c 8486,0 15188,6323 15188,14809 0,8431 -6595,14755 -15026,14755 h -11026 z m 69236,-4162 h -4324 v 22268 c 0,7350 -4324,11620 -11512,11620 -7189,0 -11620,-4270 -11620,-11620 v -22268 h -4325 v 22268 c 0,9836 6000,15781 15945,15781 9891,0 15836,-5945 15836,-15781 z m 21835,-162 c -7837,0 -13080,3837 -13080,9782 0,13567 21295,8270 21241,18215 0,3621 -3405,5837 -8864,5837 -4270,0 -9080,-1946 -12593,-5351 l -1945,3891 c 3567,3405 8972,5784 14484,5784 8107,0 13674,-4054 13674,-10378 54,-13728 -21240,-8647 -21240,-18376 0,-3189 3189,-5026 8053,-5026 3027,0 7026,919 10431,3189 l 1838,-4054 c -3135,-2108 -7621,-3513 -11999,-3513 z m 45670,4324 v -4162 h -29023 v 4162 h 12323 v 33671 h 4324 v -33671 z m 31024,33671 h 4918 l -8864,-12863 c 5459,-1783 8486,-5999 8486,-12269 0,-8053 -5459,-12701 -14917,-12701 h -14377 v 37833 h 4324 v -11944 h 10053 c 864,0 1729,-54 2540,-108 z m -20430,-16106 v -17565 h 10053 c 6864,0 10755,2918 10755,8647 0,5892 -3891,8918 -10755,8918 z m 47670,3135 14376,-24862 h -4431 l -12107,19727 -12269,-19727 h -4486 l 14647,25024 v 12809 h 4270 z"
   id="path19" />
 </g>
 <g
   id="Layer_x0020_6"
   transform="translate(-89824,-48565.413)">
  <metadata
   id="CorelCorpID_5Corel-Layer" />
  <path
   fill="#eb3300"
   d="m 596483,344841 v -9890 h -34103 v 9890 h 10755 v 27997 h 12539 v -27997 z m 20268,-10269 c -12052,0 -20808,8053 -20808,19295 0,11296 8756,19511 20808,19511 12053,0 20808,-8269 20808,-19511 0,-11187 -8755,-19295 -20808,-19295 z m 162,10432 c 4324,0 7783,3729 7783,8917 0,5189 -3459,9026 -7783,9026 -4324,0 -8107,-3837 -8107,-9026 0,-5188 3729,-8917 8107,-8917 z m 24159,-10053 v 37887 h 16431 c 12809,0 21078,-7459 21078,-18971 0,-11512 -8107,-18916 -20592,-18916 z m 12539,9728 h 4108 c 4864,0 8053,3675 8053,9296 0,5567 -2918,9134 -7459,9134 h -4702 z m 53183,22808 1891,5351 h 13350 l -15403,-37887 h -12863 l -15999,37887 h 12864 l 1946,-5351 z m -3081,-8972 h -7891 l 4000,-11080 z m 40374,2541 13565,-26105 h -12485 l -7350,14592 -7621,-14592 h -12485 l 13837,26375 v 11512 h 12539 z"
   id="path23" />
 </g>
 <g
   id="Layer_x0020_7"
   transform="translate(-89824,-48565.413)">
  <metadata
   id="CorelCorpID_6Corel-Layer" />
  <path
   fill="#eb3300"
   d="m 679354,305469 v -79370 c 0,-1738 -299,-2934 -897,-3586 -597,-651 -1657,-1032 -3177,-1140 l -5705,-326 v -13527 h 29010 v 43841 c 5650,-8041 13582,-12061 23795,-12061 8257,0 14641,2363 19150,7090 4509,4726 6763,11816 6763,21268 v 42538 l 9290,489 v 13038 h -38789 v -12386 l 5379,-489 c 1629,-218 2825,-679 3585,-1386 761,-706 1141,-2037 1141,-3993 v -33573 c 0,-5650 -896,-9996 -2689,-13039 -1793,-3042 -5270,-4563 -10430,-4563 -5161,0 -9290,1603 -12387,4808 -3097,3205 -4645,7090 -4645,11653 v 39441 l 9290,489 v 13038 h -38789 v -12386 l 5379,-489 c 1629,-218 2824,-679 3585,-1386 761,-706 1141,-2037 1141,-3993 z m -328077,-815 v -28195 h -46123 v 32922 l 9453,489 v 13853 h -39440 v -13201 l 5378,-489 c 3151,-326 4726,-1848 4726,-4564 v -75784 l -9290,-489 v -13853 h 39441 v 13201 l -5378,489 c -1738,217 -2988,679 -3749,1385 -760,706 -1141,2037 -1141,3993 v 25261 h 46123 v -29987 l -9290,-489 v -13853 h 39441 v 13201 l -5378,489 c -3151,326 -4726,2064 -4726,5215 v 75133 l 9289,489 v 13853 h -39441 v -13201 l 5379,-489 c 1630,-218 2825,-679 3585,-1386 761,-706 1141,-2037 1141,-3993 z m 81001,-65354 c 8149,0 14614,1983 19394,5949 4781,3966 7171,9534 7171,16705 0,4781 -1032,8991 -3096,12631 -2065,3640 -4618,6492 -7660,8556 -3043,2065 -6737,3749 -11083,5053 -7280,2173 -15483,3259 -24610,3259 326,5759 2119,10404 5379,13935 3259,3531 8257,5297 14994,5297 6736,0 13473,-2391 20209,-7172 l 6193,13202 c -2173,1955 -5840,3966 -11001,6030 -5161,2064 -11055,3097 -17683,3097 -13255,0 -22980,-3668 -29173,-11001 -6193,-7334 -9290,-17412 -9290,-30233 0,-12821 3532,-23577 10594,-32269 7062,-8693 16950,-13039 29662,-13039 z m -7416,37241 c 3966,-706 7633,-2282 11001,-4727 3368,-2444 5053,-5351 5053,-8719 0,-6628 -3260,-9941 -9779,-9941 -6085,0 -10757,2417 -14016,7252 -3260,4835 -5052,10621 -5378,17357 4780,-109 9153,-516 13119,-1222 z m 118567,-31537 v 60628 c 0,1739 299,2934 896,3586 598,652 1657,1032 3179,1141 l 5215,326 v 13038 h -25914 v -9453 l -489,-163 c -5432,7823 -12875,11735 -22328,11735 -11082,0 -19285,-3532 -24609,-10594 -5324,-7063 -7986,-16732 -7986,-29010 0,-14777 3585,-26294 10756,-34551 7171,-8258 17928,-12387 32270,-12387 9235,0 18905,1902 29010,5704 z m -18905,52805 v -42211 c -3043,-1413 -7226,-2118 -12550,-2118 -7280,0 -12549,2933 -15809,8800 -3259,5867 -4889,13636 -4889,23306 0,17602 5650,26403 16950,26403 4780,0 8692,-1440 11734,-4319 3042,-2880 4564,-6166 4564,-9861 z m 67310,-90289 v 102676 l 9290,489 v 13038 h -38789 v -12386 l 5378,-489 c 3151,-326 4727,-2065 4727,-5216 v -80348 c 0,-2390 -1359,-3694 -4075,-3911 l -5704,-326 v -13527 z m 34226,16949 h 10593 v 17276 h 21677 l -1630,13690 h -20047 v 42863 c 0,4781 869,8122 2608,10023 1739,1902 4428,2853 8067,2853 3640,0 7307,-1141 11002,-3423 l 4889,12549 c -5433,3803 -12332,5704 -20699,5704 -4889,0 -9018,-624 -12386,-1874 -3368,-1249 -5867,-2635 -7497,-4156 -1630,-1521 -2879,-3748 -3748,-6682 -869,-2933 -1358,-5242 -1467,-6926 -109,-1685 -163,-4156 -163,-7416 v -43515 h -11572 l 1630,-11897 c 5107,-435 8964,-2255 11572,-5460 2607,-3205 4998,-7741 7171,-13609 z"
   id="path27" />
 </g>
</svg>
