<?xml version="1.0" encoding="UTF-8" standalone="no"?>
<svg
   xmlns:dc="http://purl.org/dc/elements/1.1/"
   xmlns:cc="http://creativecommons.org/ns#"
   xmlns:rdf="http://www.w3.org/1999/02/22-rdf-syntax-ns#"
   xmlns:svg="http://www.w3.org/2000/svg"
   xmlns="http://www.w3.org/2000/svg"
   id="Layer_1"
   data-name="Layer 1"
   viewBox="0 0 375.54001 174.61"
   version="1.1"
   width="375.54001"
   height="174.61">
  <metadata
     id="metadata31">
    <rdf:RDF>
      <cc:Work
         rdf:about="">
        <dc:format>image/svg+xml</dc:format>
        <dc:type
           rdf:resource="http://purl.org/dc/dcmitype/StillImage" />
      </cc:Work>
    </rdf:RDF>
  </metadata>
  <defs
     id="defs4">
    <style
       id="style2">.cls-1{fill:#0d47a1;}.cls-2{fill:#546e7a;}</style>
  </defs>
  <title
     id="title6">102</title>
  <path
     class="cls-1"
     d="m 120.27,124.31 q -4.67,15.86 -9.86,24 A 33.35,33.35 0 0 1 98.08,160.2 q -7.14,3.76 -17.84,3.76 H 69.05 q -9.51,0 -12,-0.89 a 7.87,7.87 0 0 1 -4.65,-4.21 q -1.2,-2.82 -1.19,-13.13 V 22.98 q 0,-10.11 1.09,-12.48 a 9.47,9.47 0 0 1 4.06,-4.76 18.64,18.64 0 0 1 9.41,-2.08 h 5.85 V 0 H 0 v 3.66 h 4.46 a 17.87,17.87 0 0 1 9,1.93 10,10 0 0 1 4.41,4.51 q 1.1,2.58 1.09,12.88 v 125.55 q 0,10.09 -1.09,12.48 a 9.06,9.06 0 0 1 -4,4.75 18.56,18.56 0 0 1 -9.41,2.08 H 0 v 3.67 H 25.08 V 16.16 a 1.56,1.56 0 0 1 3.12,0 v 155.35 h 5.07 V 16.16 a 1.56,1.56 0 0 1 3.12,0 v 155.35 h 5.06 V 16.16 a 1.56,1.56 0 0 1 3.12,0 v 155.35 h 74.71 l 5.05,-47.2 z"
     id="path8" />
  <path
     class="cls-1"
     d="m 189.57,142.77 h -36.59 l -4.35,10.09 a 22.33,22.33 0 0 0 -2.14,8.32 6.93,6.93 0 0 0 3.51,6.42 q 2.07,1.21 10.16,1.83 v 2.88 h -34.45 v -2.83 a 15.42,15.42 0 0 0 9.17,-4.62 q 3.58,-3.78 8.86,-15.62 l 37,-82.64 h 1.45 l 37.35,84.93 q 5.35,12.07 8.79,15.2 a 11.94,11.94 0 0 0 7.33,2.75 v 2.83 h -50.07 v -2.83 h 2.07 q 6,0 8.47,-1.68 a 4.09,4.09 0 0 0 1.68,-3.51 9.54,9.54 0 0 0 -0.45,-2.83 c -0.11,-0.46 -0.87,-2.37 -2.3,-5.73 z m -2.6,-5.65 -15.43,-35.67 -15.89,35.67 z"
     id="path10" />
  <path
     class="cls-1"
     d="m 375.17,68.69 v 2.82 a 9.7,9.7 0 0 0 -4.89,1.61 11.64,11.64 0 0 0 -3.51,4.19 q -0.45,0.92 -4.81,11.84 l -32.46,85.46 h -3 l -25.66,-66.75 -28.26,66.75 h -2.81 L 235.71,90.06 q -5.2,-12.75 -7.26,-15.43 -2.06,-2.68 -6.95,-3.13 v -2.82 h 44.91 v 2.82 q -5.42,0.15 -7.22,1.64 a 4.66,4.66 0 0 0 -1.79,3.71 q 0,2.89 3.74,12.3 l 20.32,50.25 16.31,-39.25 -4.28,-11 q -3.51,-9 -5.42,-12 a 11.87,11.87 0 0 0 -4.39,-4.32 16.15,16.15 0 0 0 -7.3,-1.3 v -2.82 h 50.18 v 2.82 a 27.65,27.65 0 0 0 -7.56,0.84 5,5 0 0 0 -2.52,1.8 4.74,4.74 0 0 0 -0.92,2.86 q 0,1.76 3.44,10.77 l 18.87,49 16.88,-44.38 a 92.25,92.25 0 0 0 3.28,-9.39 19.77,19.77 0 0 0 0.61,-4.66 6.08,6.08 0 0 0 -2.14,-4.93 c -1.42,-1.2 -4.15,-1.85 -8.17,-2 v -2.82 z"
     id="path12" />
  <path
     class="cls-2"
     d="m 105.34,14.31 0.49,10.32 h -1.23 a 12.55,12.55 0 0 0 -1,-3.9 6.47,6.47 0 0 0 -2.68,-2.77 9.25,9.25 0 0 0 -4.39,-0.89 h -6.2 v 33.62 c 0,2.71 0.29,4.39 0.87,5.06 a 4.89,4.89 0 0 0 3.8,1.37 h 1.53 v 1.2 H 77.88 v -1.2 h 1.56 a 4.46,4.46 0 0 0 4,-1.69 q 0.72,-1 0.72,-4.74 V 17.11 h -5.3 a 14.92,14.92 0 0 0 -4.38,0.45 6,6 0 0 0 -2.89,2.37 9.6,9.6 0 0 0 -1.42,4.74 h -1.28 l 0.52,-10.36 z"
     id="path14" />
  <path
     class="cls-2"
     d="m 130.59,13.31 a 20,20 0 0 1 14.85,6.51 22.45,22.45 0 0 1 6.33,16.27 q 0,10 -6.33,16.65 a 21.17,21.17 0 0 1 -30.59,0.17 q -6.18,-6.47 -6.18,-16.72 0,-10.49 7.14,-17.1 a 21.07,21.07 0 0 1 14.78,-5.78 z m -0.61,2.37 a 11.62,11.62 0 0 0 -9.48,4.38 q -4.46,5.46 -4.45,16 0,10.77 4.61,16.59 a 11.4,11.4 0 0 0 9.35,4.41 12.77,12.77 0 0 0 10.24,-4.84 q 4,-4.83 4,-15.25 0,-11.29 -4.45,-16.85 a 12,12 0 0 0 -9.82,-4.41 z"
     id="path16" />
  <path
     class="cls-2"
     d="m 155.42,58.36 v -1.2 h 1.66 a 4.38,4.38 0 0 0 4,-1.79 c 0.47,-0.71 0.71,-2.31 0.71,-4.8 V 22.14 q 0,-4.12 -0.91,-5.16 a 4.73,4.73 0 0 0 -3.76,-1.43 h -1.66 v -1.24 h 17.92 q 9.87,0 15,2.24 a 17.87,17.87 0 0 1 8.28,7.46 23.13,23.13 0 0 1 3.11,12.12 22,22 0 0 1 -5.58,15.35 q -6.27,6.89 -19.09,6.88 z m 12.56,-3.18 a 33.64,33.64 0 0 0 6.92,0.91 16.42,16.42 0 0 0 12.49,-5.29 q 5,-5.3 5,-14.35 0,-9.05 -5,-14.38 a 16.78,16.78 0 0 0 -12.75,-5.26 27.53,27.53 0 0 0 -6.66,0.95 z"
     id="path18" />
  <path
     class="cls-2"
     d="m 232.7,43.62 h -17 l -3,6.95 a 11,11 0 0 0 -1.11,3.83 2.23,2.23 0 0 0 1,1.77 q 1,0.76 4.14,1 v 1.2 h -13.96 v -1.2 a 7.5,7.5 0 0 0 3.57,-1.27 q 1.65,-1.56 3.67,-6.33 l 15.52,-36.26 h 1.13 l 15.32,36.61 c 1.24,3 2.36,4.85 3.36,5.73 a 6.86,6.86 0 0 0 4.21,1.48 v 1.2 h -17.37 v -1.2 a 6.56,6.56 0 0 0 3.59,-0.82 2.27,2.27 0 0 0 0.92,-1.82 13.4,13.4 0 0 0 -1.3,-4.51 z m -0.91,-2.4 -7.46,-17.78 -7.66,17.78 z"
     id="path20" />
  <path
     class="cls-2"
     d="m 275.87,14.31 h 15.35 v 1.2 h -0.84 a 6.7,6.7 0 0 0 -2.47,0.74 9.63,9.63 0 0 0 -2.95,2.15 29,29 0 0 0 -3.28,4.54 L 271.07,39.7 v 11 c 0,2.71 0.3,4.39 0.9,5.06 a 5,5 0 0 0 3.9,1.37 h 1.43 v 1.2 h -18.7 v -1.2 h 1.56 a 4.46,4.46 0 0 0 4,-1.69 c 0.48,-0.69 0.71,-2.27 0.71,-4.74 V 40.31 l -12.1,-18.43 a 38,38 0 0 0 -2.91,-4.06 11.32,11.32 0 0 0 -3.16,-1.95 4.42,4.42 0 0 0 -1.88,-0.32 v -1.24 h 18.82 v 1.2 h -1 a 5.75,5.75 0 0 0 -2.81,0.71 2.32,2.32 0 0 0 -1.28,2.14 q 0,1.17 2,4.22 l 9.22,14.23 8.64,-13.57 c 1.3,-2 1.95,-3.55 1.95,-4.54 a 2.86,2.86 0 0 0 -0.48,-1.63 3.17,3.17 0 0 0 -1.34,-1.12 6.58,6.58 0 0 0 -2.63,-0.4 z"
     id="path22" />
  <path
     class="cls-2"
     d="m 326.86,57.16 v 1.2 H 308 v -1.2 h 1.56 a 4.69,4.69 0 0 0 4,-1.59 c 0.52,-0.69 0.78,-2.36 0.78,-5 V 22.14 a 14.71,14.71 0 0 0 -0.42,-4.42 2.92,2.92 0 0 0 -1.34,-1.39 6.11,6.11 0 0 0 -3,-0.78 h -1.56 v -1.24 h 18.86 v 1.2 h -1.61 a 4.66,4.66 0 0 0 -3.93,1.59 c -0.54,0.69 -0.81,2.36 -0.81,5 v 28.43 a 14.58,14.58 0 0 0 0.42,4.41 2.94,2.94 0 0 0 1.36,1.4 6,6 0 0 0 3,0.78 z"
     id="path24" />
  <path
     class="cls-2"
     d="m 327.6,14.31 h 11.95 l 26.91,33 V 21.97 c 0,-2.7 -0.31,-4.39 -0.91,-5.06 a 4.81,4.81 0 0 0 -3.8,-1.36 h -1.53 v -1.24 h 15.32 v 1.2 h -1.55 a 4.44,4.44 0 0 0 -4,1.69 c -0.48,0.69 -0.72,2.27 -0.72,4.73 v 37.1 h -1.17 l -29,-35.44 v 27.1 c 0,2.71 0.29,4.39 0.87,5.06 a 4.89,4.89 0 0 0 3.8,1.37 h 1.56 v 1.2 h -15.29 v -1.2 h 1.52 c 1.89,0 3.22,-0.56 4,-1.69 0.47,-0.69 0.71,-2.27 0.71,-4.74 V 20.12 a 20.57,20.57 0 0 0 -2.9,-2.95 10.81,10.81 0 0 0 -2.91,-1.33 10.58,10.58 0 0 0 -2.86,-0.29 z"
     id="path26" />
</svg>
